#!OML:ASF H:\ColoradoDance\Project 1\Capture day 1\Session 8\male.ASF
:FULLY-SPECIFIED
:DEGREES
46
upperback -3.298500 -1.394750 2.517500
rfoot -9.632010 -29.190800
lradius 35.052502
lthumb 3.558510 59.200901
rradius 23.002100
lwrist -7.270310
rhand -35.307098 -0.911408
rhumerus -37.226299 -3.620040 -65.019798
lowerneck -2.694350 -4.493200 -0.363343
lhand -22.880501 29.250900
ltibia 64.517197
head 1.863870 -3.024320 -0.428437
rwrist 8.965370
lfingers 7.125020
rtoes 1.480980
lowerback 3.562280 -1.252920 5.096060
rfingers 7.125020
lclavicle -0.000000 -0.000000
upperneck 4.602420 -5.972140 -1.106090
rfemur -48.469101 -22.711700 27.818600
thorax -5.487470 -0.899187 -0.115014
rclavicle -0.000000 -0.000000
rtibia 50.755798
lfoot -11.503400 -15.862800
lhumerus -30.558701 -0.670613 66.220497
rthumb -8.441110 -390.722992
root 10.661800 18.040100 19.527700 549.007019 -18.957300 186.410995
ltoes -7.292690
lfemur -18.048901 11.812000 -17.197901
47
upperback -3.293570 -1.062110 3.987760
rfoot -1.578140 4.477930
lradius 33.795700
lthumb 3.261310 56.119099
rradius 21.048700
lwrist -8.310480
rhand -30.059099 -4.287940
rhumerus -38.559502 -9.141790 -52.777699
lowerneck -5.597280 -0.927222 3.746500
lhand -23.188200 26.164301
ltibia 34.986801
head 1.428110 -0.744242 -1.358000
rwrist 10.092700
lfingers 7.125020
rtoes -4.185140
lowerback 3.645610 -0.967059 5.071810
rfingers 7.125020
lclavicle -0.000000 0.000000
upperneck 1.658880 -1.445320 -2.156520
rfemur -50.897701 -8.855400 16.715900
thorax -5.486830 -0.755803 1.408370
rclavicle -0.000000 0.000000
rtibia 43.483700
lfoot -28.716801 10.034000
lhumerus -27.082199 -3.592300 67.899696
rthumb -3.374550 -394.240997
root 11.543000 18.017500 22.811399 554.796021 -9.437390 189.464005
ltoes 14.157000
lfemur -15.100600 -6.199220 -27.862700
48
upperback -3.337960 2.335670 3.784220
rfoot -3.014260 -23.930000
lradius 26.798401
lthumb 7.033710 52.945702
rradius 21.888201
lwrist -15.369900
rhand -25.976200 -0.116128
rhumerus -32.387100 -7.096980 -54.339001
lowerneck -6.538440 1.752040 6.699150
lhand -19.281200 23.082500
ltibia 43.151600
head 2.481290 0.962425 -2.927210
rwrist 9.388290
lfingers 7.125020
rtoes 5.375550
lowerback 2.772510 0.970345 9.206270
rfingers 7.125020
lclavicle 0.000000 0.000000
upperneck 3.618310 2.052110 -5.530900
rfemur -19.690599 -10.802200 16.247499
thorax -4.885820 1.067160 -1.371840
rclavicle 0.000000 0.000000
rtibia 56.881599
lfoot -29.673401 14.101500
lhumerus -35.341400 4.215810 61.027302
rthumb 0.568765 -390.095001
root 10.981100 17.710600 25.361401 555.831970 4.540730 192.078003
ltoes 21.527201
lfemur -30.178400 4.693840 -31.482500
49
upperback -4.426600 6.391820 1.294610
rfoot -6.443120 -1.344280
lradius 21.366501
lthumb 11.893700 54.637600
rradius 31.896200
lwrist -19.475901
rhand -29.454901 4.022150
rhumerus -26.354900 -0.735703 -66.398903
lowerneck -7.012400 4.664330 10.173500
lhand -14.244100 24.995399
ltibia 36.774799
head 3.257500 2.801260 -3.052840
rwrist 13.325900
lfingers 7.125020
rtoes -41.370300
lowerback 2.823980 4.281300 6.822470
rfingers 7.125020
lclavicle -0.000000 -0.000000
upperneck 5.607030 5.643560 -5.616020
rfemur -0.306692 -22.153099 27.985001
thorax -5.626600 2.981560 -2.908650
rclavicle -0.000000 -0.000000
rtibia 49.705799
lfoot -20.421400 15.586500
lhumerus -35.384998 11.880300 46.867500
rthumb -2.791040 -385.938995
root 9.345340 17.577200 27.606899 557.786011 23.085699 192.358994
ltoes 27.794500
lfemur -40.954300 14.995400 -40.533100
50
upperback -2.270870 3.861940 1.864010
rfoot -33.605900 -19.015800
lradius 22.389099
lthumb 12.237400 61.824001
rradius 42.540901
lwrist -15.918100
rhand -35.379799 12.770000
rhumerus -19.469200 12.598400 -72.977798
lowerneck -5.391310 -3.952350 1.226520
lhand -13.887700 32.202000
ltibia 46.867401
head 2.999190 -2.594720 0.510788
rwrist -11.502100
lfingers 7.125020
rtoes -22.067900
lowerback 5.181810 2.248450 9.144430
rfingers 7.125020
lclavicle 0.000000 0.000000
upperneck 6.264490 -5.553200 2.968170
rfemur -11.907200 -18.049101 28.054300
thorax -4.837130 1.691420 -3.511810
rclavicle 0.000000 0.000000
rtibia 49.483398
lfoot -3.277920 5.360000
lhumerus -30.088400 4.290310 52.959999
rthumb -8.511300 -377.039001
root 5.622350 17.418900 30.066601 561.812012 47.974800 198.807999
ltoes -6.640640
lfemur -54.182098 9.699030 -26.761801
51
upperback -2.297150 -10.424500 4.107060
rfoot -19.718300 -9.017180
lradius 30.138800
lthumb 12.485400 58.106201
rradius 34.083599
lwrist -12.307200
rhand -12.163700 23.746099
rhumerus -20.397600 15.690700 -72.735199
lowerneck 1.211320 -12.227200 -11.782500
lhand -13.630400 28.499201
ltibia 69.728600
head 4.506230 -8.461160 3.125700
rwrist 4.492700
lfingers 7.125020
rtoes -20.839100
lowerback 3.803820 -8.030720 1.568320
rfingers 7.125020
lclavicle -0.000000 0.000000
upperneck 10.403800 -16.788601 6.856040
rfemur -29.136600 13.030100 14.500800
thorax -4.000400 -5.152520 4.098930
rclavicle -0.000000 0.000000
rtibia 49.480400
lfoot -12.625700 -23.706100
lhumerus -45.567101 9.086670 64.749199
rthumb 13.899300 -365.769012
root 2.082050 17.946100 30.153099 617.643005 83.050697 254.257996
ltoes -6.237070
lfemur -28.413401 6.736100 -11.598900
52
upperback -1.561300 -9.580830 3.011210
rfoot -5.309300 10.524900
lradius 27.587799
lthumb 27.962799 61.096500
rradius 36.225399
lwrist -7.661880
rhand -8.261880 6.875700
rhumerus -10.327600 15.980000 -76.258904
lowerneck -5.384590 -16.409401 -9.154050
lhand 2.479240 33.159100
ltibia 33.634701
head 7.405380 -10.921600 0.516998
rwrist 3.170340
lfingers 7.125020
rtoes -27.578501
lowerback 3.357350 -7.175150 -1.758620
rfingers 7.125020
lclavicle 0.000000 -0.000000
upperneck 16.667601 -22.053101 3.526250
rfemur -45.961201 11.564600 23.813000
thorax -2.673920 -4.729620 4.551520
rclavicle 0.000000 -0.000000
rtibia 29.069799
lfoot -22.832100 19.200399
lhumerus -51.694401 8.151670 64.502296
rthumb 17.656799 -382.342987
root -1.339350 19.059900 28.511900 725.620972 19.560801 354.979004
ltoes 14.888700
lfemur -20.112200 10.408600 -26.286900
53
upperback -2.406540 -2.350340 -0.105786
rfoot -10.145400 -30.270100
lradius 20.005501
lthumb 26.483000 50.194901
rradius 35.644600
lwrist -18.464100
rhand -33.653999 0.357826
rhumerus -20.240801 9.818840 -77.649902
lowerneck -4.312950 -15.540600 -5.243430
lhand 0.932299 22.025600
ltibia 31.504601
head 5.121720 -10.373400 0.311219
rwrist -1.784310
lfingers 7.125020
rtoes -21.943001
lowerback 4.880420 -1.460750 -5.483760
rfingers 7.125020
lclavicle -0.000000 -0.000000
upperneck 11.880200 -20.948099 2.760000
rfemur -45.219501 6.478180 15.386200
thorax -5.031640 -0.984056 3.176790
rclavicle -0.000000 -0.000000
rtibia 33.593601
lfoot -20.872499 1.603270
lhumerus -54.402599 11.336600 55.021702
rthumb -6.845600 -389.510986
root -4.325610 19.283701 27.513500 727.898987 -38.009102 359.549011
ltoes -1.531190
lfemur -22.436001 -16.589100 -17.729099
54
upperback -3.277020 -2.153040 -2.619520
rfoot -33.323200 -41.806599
lradius 24.676300
lthumb 16.403099 40.444599
rradius 34.584499
lwrist -12.833700
rhand -35.471298 0.035217
rhumerus -35.207699 2.953520 -60.514301
lowerneck -2.853030 -12.914100 -4.107290
lhand -9.564380 11.118200
ltibia 36.546902
head 4.724430 -8.772270 -0.304605
rwrist -1.647030
lfingers 7.125020
rtoes 10.486400
lowerback 5.667190 -0.943947 -7.804220
rfingers 7.125020
lclavicle 0.000000 -0.000000
upperneck 12.988200 -17.331699 -0.125590
rfemur -47.558701 -27.168100 17.546900
thorax -6.464240 -0.809131 1.862480
rclavicle 0.000000 -0.000000
rtibia 28.057400
lfoot -28.204500 8.841050
lhumerus -53.228199 3.372100 56.380501
rthumb -8.599570 -389.769989
root -8.314810 18.106600 26.980900 697.856018 -71.237099 386.774994
ltoes -16.195400
lfemur -3.653110 5.635610 -22.138000
55
upperback -2.718110 -5.071650 2.419000
rfoot -18.143900 -29.478001
lradius 25.987801
lthumb 26.710199 11.389900
rradius 22.537600
lwrist -10.580900
rhand -25.842300 -0.226630
rhumerus -21.010201 3.555460 -65.140297
lowerneck -1.549540 -13.566700 -8.329250
lhand 1.169670 -16.745001
ltibia 47.330101
head 3.544990 -9.206060 1.220360
rwrist 9.592430
lfingers 7.125020
rtoes 7.631570
lowerback 1.070230 -3.811140 -0.035274
rfingers 7.125020
lclavicle -0.000000 0.000000
upperneck 6.918900 -18.150299 1.932960
rfemur -45.703300 -14.200700 28.194099
thorax -3.171590 -2.518260 2.694470
rclavicle -0.000000 0.000000
rtibia 54.146801
lfoot -5.786330 6.379390
lhumerus -52.231300 7.246550 78.498802
rthumb 0.698102 -390.204987
root -13.526800 18.108101 25.715300 916.179016 -60.455299 166.485001
ltoes -4.514380
lfemur 7.382160 10.374000 -17.107599
56
upperback -4.011300 -3.705290 0.691521
rfoot -20.975901 -14.462100
lradius 25.815800
lthumb 31.615101 6.772510
rradius 25.680500
lwrist -22.880301
rhand -27.934700 5.360460
rhumerus -33.194698 9.264410 -86.427399
lowerneck -3.111280 -9.087070 -4.160820
lhand 6.306270 -20.509899
ltibia 34.034901
head 3.474190 -6.242750 0.245431
rwrist 9.599520
lfingers 7.125020
rtoes -12.267500
lowerback 1.506260 -2.655060 -1.837630
rfingers 7.125020
lclavicle -0.000000 0.000000
upperneck 8.177380 -12.196200 0.167618
rfemur -41.584999 -16.017599 26.962500
thorax -4.825570 -1.803100 1.951210
rclavicle -0.000000 0.000000
rtibia 57.600498
lfoot -2.908060 33.841400
lhumerus -51.909901 7.072920 62.173599
rthumb -1.322840 -384.614990
root -17.283800 18.444201 24.754299 912.851013 -13.239200 171.322998
ltoes -9.659370
lfemur 2.956770 2.742320 -16.936199
57
upperback -5.276380 -1.235090 -2.666740
rfoot -26.162201 -21.819500
lradius 23.152399
lthumb 23.420900 6.550440
rradius 25.056299
lwrist -19.681200
rhand -35.527901 -5.344640
rhumerus -39.645699 -0.558571 -80.713303
lowerneck -4.897850 -4.901340 0.862633
lhand -2.263190 -22.044300
ltibia 8.736400
head 3.499880 -3.178980 -0.660298
rwrist 2.686030
lfingers 7.125020
rtoes -4.232600
lowerback 0.365374 -0.973624 -3.726510
rfingers 7.125020
lclavicle 0.000000 0.000000
upperneck 8.337620 -6.497850 -0.674845
rfemur -54.214802 -27.042400 28.471800
thorax -5.650840 -0.367255 -0.633211
rclavicle 0.000000 0.000000
rtibia 64.459602
lfoot -10.814400 42.251900
lhumerus -48.196400 7.583260 49.582100
rthumb -8.654240 -395.147003
root -20.756001 18.165100 24.310400 912.674988 15.363800 170.259003
ltoes -5.491850
lfemur 10.830200 -11.918000 -12.011700
58
upperback -4.976470 -1.267500 -2.287580
rfoot -13.934300 -15.947400
lradius 27.720301
lthumb 13.245000 24.105400
rradius 37.322899
lwrist -9.569210
rhand -44.196201 -17.029600
rhumerus -45.029099 -9.631090 -66.676399
lowerneck -4.003030 -2.141660 3.967220
lhand -12.842500 -5.453800
ltibia 13.744600
head 2.855470 -1.389420 -1.886730
rwrist -2.180460
lfingers 7.125020
rtoes -2.258580
lowerback 0.372320 -0.996098 -1.505160
rfingers 7.125020
lclavicle 0.000000 0.000000
upperneck 7.056010 -2.832060 -3.356910
rfemur -61.755600 -28.081200 20.973801
thorax -5.372770 -0.525117 -1.472730
rclavicle 0.000000 0.000000
rtibia 63.251598
lfoot -20.486601 17.056400
lhumerus -39.465000 2.135390 57.321999
rthumb -17.010000 -406.304993
root -24.721001 17.875799 24.362400 910.349976 28.385401 170.214005
ltoes -9.431810
lfemur 8.831170 -0.918955 -13.657600
